<?xml version="1.0" encoding="iso-8859-1"?>
<!-- Uploaded to: SVG Repo, www.svgrepo.com, Generator: SVG Repo Mixer Tools -->
<svg fill="#000000" height="800px" width="800px" version="1.1" id="Layer_1" xmlns="http://www.w3.org/2000/svg" xmlns:xlink="http://www.w3.org/1999/xlink" 
	 viewBox="0 0 512.001 512.001" xml:space="preserve">
<g>
	<g>
		<path d="M56.295,455.706c-0.164-0.885-0.442-1.756-0.788-2.599c-0.346-0.83-0.774-1.632-1.272-2.378
			c-0.498-0.76-1.078-1.467-1.714-2.103c-3.208-3.206-7.978-4.687-12.471-3.787c-0.885,0.18-1.756,0.456-2.586,0.802
			c-0.843,0.346-1.645,0.76-2.392,1.257c-0.76,0.512-1.466,1.092-2.102,1.728c-0.636,0.636-1.217,1.343-1.728,2.103
			c-0.498,0.747-0.926,1.549-1.272,2.378c-0.346,0.843-0.608,1.714-0.788,2.599c-0.18,0.886-0.263,1.797-0.263,2.696
			c0,3.636,1.479,7.203,4.051,9.775c0.636,0.636,1.341,1.217,2.102,1.713c0.747,0.498,1.549,0.928,2.392,1.273
			c0.83,0.346,1.701,0.607,2.586,0.787c0.885,0.18,1.797,0.276,2.696,0.276c0.899,0,1.811-0.097,2.696-0.276
			c0.885-0.18,1.756-0.441,2.585-0.787c0.843-0.346,1.645-0.776,2.392-1.273c0.76-0.496,1.466-1.077,2.102-1.713
			c2.572-2.572,4.051-6.139,4.051-9.775C56.571,457.503,56.474,456.591,56.295,455.706z"/>
	</g>
</g>
<g>
	<g>
		<path d="M482.807,455.705c-0.167-0.884-0.445-1.755-0.791-2.598c-0.346-0.83-0.774-1.632-1.272-2.378
			c-0.498-0.76-1.078-1.467-1.714-2.103c-2.57-2.57-6.137-4.051-9.774-4.051c-3.638,0-7.203,1.479-9.775,4.051
			c-0.636,0.636-1.217,1.343-1.714,2.103c-0.512,0.747-0.926,1.549-1.272,2.378c-0.359,0.843-0.622,1.714-0.802,2.599
			c-0.18,0.886-0.261,1.797-0.261,2.696c0,3.636,1.478,7.203,4.051,9.775c0.636,0.636,1.341,1.217,2.102,1.713
			c0.747,0.498,1.549,0.928,2.392,1.273c0.83,0.346,1.699,0.607,2.586,0.787c0.885,0.18,1.797,0.277,2.696,0.277
			c3.636,0,7.203-1.479,9.774-4.051c2.572-2.572,4.052-6.139,4.052-9.775C483.084,457.502,482.987,456.589,482.807,455.705z"/>
	</g>
</g>
<g>
	<g>
		<path d="M511.826,228.663c-2.02-26.127-21.002-47.367-45.838-52.986C454.95,128.162,412.229,93.524,362.5,93.524
			c-1.054,0-2.115,0.018-3.188,0.051c-23.608-33.845-61.622-53.8-103.309-53.8s-79.701,19.955-103.308,53.8
			c-1.072-0.033-2.135-0.051-3.188-0.051c-49.734,0-92.447,34.633-103.486,82.15c-24.833,5.613-43.825,26.856-45.845,52.99
			c-1.966,25.448,12.76,49.019,35.414,58.895v38.498V390.3c0,7.635,6.19,13.826,13.826,13.826h28.608L62.476,419.12
			c-5.496,5.301-5.655,14.054-0.354,19.55c2.713,2.814,6.331,4.229,9.953,4.229c3.455,0,6.913-1.287,9.597-3.874l36.186-34.899
			h276.284l36.186,34.899c2.682,2.587,6.14,3.874,9.595,3.874c3.622,0,7.239-1.414,9.953-4.229
			c5.301-5.496,5.142-14.249-0.355-19.55l-15.547-14.995h28.608c7.635,0,13.826-6.191,13.826-13.826v-64.243V287.56
			C499.066,277.683,513.792,254.112,511.826,228.663z M149.507,121.175c2.833,0,5.796,0.17,8.806,0.505
			c5.359,0.597,10.581-1.979,13.369-6.598c18.004-29.841,49.528-47.656,84.322-47.656c34.795,0,66.317,17.815,84.322,47.656
			c2.789,4.619,8.011,7.185,13.369,6.598c3.01-0.335,5.971-0.505,8.806-0.505c34.825,0,65.011,22.953,75.06,55.213
			c-8.852,2.561-16.999,7.329-23.766,14.053c-10.863,10.798-16.862,25.189-16.891,40.498l-0.082,24.154
			c-11.054-8.264-24.764-13.163-39.597-13.163h-49.528c-20.89,0-39.541,9.727-51.697,24.877
			c-12.155-15.151-30.806-24.877-51.697-24.877H154.77c-14.483,0-27.885,4.683-38.8,12.594l-0.079-23.567
			c-0.028-15.329-6.025-29.718-16.89-40.518c-6.952-6.91-15.358-11.769-24.494-14.274
			C84.626,144.021,114.753,121.175,149.507,121.175z M270.017,299.776c3.855-17.254,19.281-30.192,37.679-30.192h49.528
			c21.292,0,38.617,17.323,38.617,38.617v3.108H270.571V308.2C270.571,305.345,270.37,302.537,270.017,299.776z M241.984,299.776
			c-0.353,2.761-0.554,5.568-0.554,8.424v3.108H116.166l-0.007-2.013V308.2c0-21.292,17.323-38.617,38.617-38.617h49.529
			C222.704,269.583,238.13,282.522,241.984,299.776z M52.365,264.061c-15.243-3.327-25.826-17.63-24.619-33.267
			c1.199-15.513,14.341-28.207,29.899-28.899c0.111-0.006,0.22-0.004,0.329-0.007c0.191-0.003,0.38,0.012,0.572,0.003
			c0.25-0.01,0.498-0.012,0.747-0.018c7.263,0.053,14.15,2.944,19.419,8.182c5.616,5.583,8.717,13.026,8.731,20.977l0.272,81.198
			H63.244v-34.659C63.244,271.071,58.716,265.448,52.365,264.061z M63.244,376.472v-36.591h385.515v36.591H63.244z M459.637,264.06
			c-6.352,1.387-10.878,7.008-10.878,13.51v34.659h-23.677l0.272-81.218c0.015-7.932,3.116-15.375,8.731-20.956
			c5.254-5.224,12.116-8.11,19.357-8.18c0.3,0.004,0.603,0.006,0.893,0.019c15.578,0.693,28.718,13.388,29.918,28.899
			C485.465,246.433,474.879,260.735,459.637,264.06z"/>
	</g>
</g>
<g>
	<g>
		<path d="M275.556,162.53l3.584-3.584c5.399-5.399,5.399-14.154,0-19.554c-5.398-5.395-14.15-5.398-19.554,0L256,142.977
			l-3.585-3.585c-5.399-5.398-14.154-5.398-19.553,0c-5.399,5.399-5.399,14.154,0,19.554l3.584,3.584l-3.584,3.585
			c-5.398,5.399-5.398,14.155,0.001,19.554c2.7,2.699,6.238,4.05,9.776,4.05s7.078-1.351,9.776-4.05l3.585-3.585l3.585,3.585
			c2.7,2.699,6.238,4.05,9.776,4.05c3.538,0,7.076-1.351,9.776-4.05c5.399-5.399,5.399-14.154,0-19.554L275.556,162.53z"/>
	</g>
</g>
<g>
	<g>
		<path d="M375.679,188.037l3.584-3.585c5.399-5.399,5.399-14.154,0-19.554c-5.398-5.395-14.15-5.398-19.554,0l-3.585,3.585
			l-3.585-3.585c-5.401-5.398-14.155-5.398-19.554,0c-5.399,5.399-5.399,14.154,0,19.554l3.584,3.585l-3.584,3.584
			c-5.398,5.399-5.398,14.154,0.001,19.553c2.7,2.699,6.238,4.05,9.776,4.05c3.538,0,7.076-1.351,9.776-4.05l3.585-3.585
			l3.585,3.585c2.7,2.699,6.238,4.05,9.776,4.05c3.538,0,7.078-1.351,9.777-4.05c5.399-5.399,5.399-14.154,0-19.554L375.679,188.037
			z"/>
	</g>
</g>
<g>
	<g>
		<path d="M179.016,191.619l-3.585-3.582l3.584-3.585c5.399-5.399,5.401-14.154,0-19.554c-5.399-5.396-14.154-5.396-19.553,0
			l-3.585,3.585l-3.585-3.585c-5.399-5.398-14.154-5.398-19.553,0c-5.399,5.399-5.399,14.154,0,19.554l3.587,3.585l-3.584,3.584
			c-5.401,5.399-5.401,14.154-0.001,19.553c2.7,2.699,6.238,4.05,9.776,4.05c3.538,0,7.078-1.351,9.776-4.05l3.585-3.585
			l3.585,3.585c2.7,2.699,6.238,4.05,9.776,4.05c3.538,0,7.078-1.351,9.776-4.05C184.415,205.774,184.415,197.019,179.016,191.619z"
			/>
	</g>
</g>
</svg>