<?xml version="1.0" encoding="iso-8859-1"?>
<!-- Uploaded to: SVG Repo, www.svgrepo.com, Generator: SVG Repo Mixer Tools -->
<!DOCTYPE svg PUBLIC "-//W3C//DTD SVG 1.1//EN" "http://www.w3.org/Graphics/SVG/1.1/DTD/svg11.dtd">
<svg fill="#000000" version="1.1" id="Capa_1" xmlns="http://www.w3.org/2000/svg" xmlns:xlink="http://www.w3.org/1999/xlink" 
	 width="800px" height="800px" viewBox="0 0 589.36 589.36"
	 xml:space="preserve">
<g>
	<path d="M579.527,291.391c-9.5-36.4-18.1-76.2-58.399-89c-56.9-18.1-116.601-2.4-175-3.1c2.1-24.2,4.899-50.5,2.399-74.4
		c11.9-4.9,21.101-13.5,19.9-27.8c0-0.9-0.3-1.5-0.601-2.1c0.9-1.5,1.5-3.4,2.101-5.2c18.7,17.1,43.5-11.3,26.3-38.2
		c-15-23.9-51.7-15.9-74.1-12.5c-59.4,9.2-119.601-4-179.001,8c-3.7,0.6-4.3,4.3-3.1,7c-19.9,11.3-20.5,37.6-6.101,53.5
		c2.4,2.8,5.5,4.9,9.2,6.4c-0.6,1.8-1.5,3.4-1.8,5.2c-1.2,4.3,2.1,8,6.4,8.3c12.5,0.6,25.1-0.3,37.6-1.8c-3.4,9.8-2.4,21.1-1.8,30.9
		c0.899,17.7,3.399,35.5,2.399,53.2c-26.3-7.7-52.6-2.8-79.3,2.4c-16.5,3.4-38.899,3.1-52.3,14.7c-25.1,21.1-33,71.9-43.1,101.9
		c-5.2,15.601-15,54.2,5.2,64.301c-4.3,26.6-10.1,52.899-16.2,79.3c-0.9,3.399,0.9,8,4.9,8.6c4.3,0.601,8.6,1.2,12.5,1.5
		c-2.1,21.7-3.1,49,5.5,69.2c2.1,4.9,10.1,2.4,9.8-2.8c-0.6-11.601-4-23-5.2-34.3c-1.2-10.7-0.9-21.4-1.8-31.801
		c21.4-0.3,41.9-5.8,63-11.3c53.2-14.1,107.4-14.7,162.2-17.7c97.9-5.8,196.101-15.6,294.101-5.8c-7,22.601-15,49.9-11,72.8
		c0.9,5.5,9.5,5.2,10.7,0c2.8-12.5,2.1-25.699,4.3-38.199c1.8-11.301,4.3-22.301,6.4-33.7c6.1,0.6,11.899,1.5,18.1,2.1
		c5.2,0.601,9.5-2.8,8.3-8.3c-4-22-10.4-43.5-16.5-65.2C603.928,367.591,585.928,317.091,579.527,291.391z M344.728,112.99
		c-3.1-1.5-7.7-0.3-8.3,3.4l0,0c-8,2.4-16.8,3.1-24.8,3.7c-4.301,0.3-30.601,1.5-41.601-0.9c2.1-6.4,2.8-13.2,2.8-20.2
		c1.5,0.9,3.4,1.5,5.2,1.2c11.3-0.9,17.1-10.1,22.601-19c5.199,22.9,32.399,31.8,51.399,25.4
		C350.027,109.391,347.527,111.49,344.728,112.99z M231.527,197.19c8.3,0.3,16.5,0.3,24.8,0c0.9,1.5,3.101,1.2,4-0.3
		c8.3-0.6,16.5-1.2,24.5-2.4c0.3,2.4,1.2,5.2,1.8,7.7c0.9,4.6,0.9,9.8,0.9,14.4c0.3,4.3,6.7,4.3,6.7,0c0.3-5.2,0.3-10.4,0-15.6
		c-0.3-2.8-0.601-5.5-1.5-7.6c13.2-1.8,26-4.6,38.6-7.3c6.7-1.5,3.7-11.3-2.8-10.4c-22.6,3.7-44.7,7.7-67,10.4
		c0.9-8.6,1.8-17.7,0.3-26c12.2-0.6,24.2-2.1,36.4-4c0,2.4,0.6,4.6,0.9,7c0.6,4.6,1.5,9.2,4,13.5c1.8,3.1,7.3,1.2,6.1-2.4
		c-1.2-4-1.5-8.3-1.5-12.5c0-2.1,0.3-4.6,0.3-6.7c8.9-1.2,18.101-2.4,26.601-3.7c0.3,18.7,2.399,37.6,4,55.4c-15-7-30.9,2.8-34,19.6
		c-16.2-8-34.601-4.9-37.001,15c-4.899-16.8-19.6-22.3-34.899-20.8c-0.3-3.7-0.3-7.6-0.3-11.3
		C232.127,204.49,232.428,200.791,231.527,197.19z M227.228,220.69c-8,1.5-15.601,4.9-21.7,9.5c-3.7-5.8-7.7-10.7-13.2-14.7
		c0.3-0.3,0.3-0.6,0.601-1.2c1.8-7,2.8-14.4,3.1-21.4c9.5,1.8,19.3,3.1,29.1,3.7C223.027,203.891,224.527,213.09,227.228,220.69z
		 M210.428,188.59c1.199-4.3,2.1-8.6,2.8-12.9c0.6-5.2,1.8-11.9,0-16.8c-0.9-3.1-5.2-3.1-6.101,0c-1.5,4.6-0.6,10.1-0.6,15
		c0,4.9-0.6,9.8-1.8,14.4c-2.8,0-5.8-0.3-8.601-0.3c0-6.7,0-13.5-0.6-20.2c-0.3-5.5-0.3-10.7,0-15.9c19,7,38.9,9.2,58.8,8.3
		c-1.5,8.3-0.6,17.4,0.3,26.3C240.127,188.291,225.428,188.891,210.428,188.59z M232.827,150.99c-12.5-0.3-24.8-1.5-37-5.2
		c0.3-7.3,0.9-14.4,1.2-21.7c6.7-0.9,13.2-2.1,19.3-4.6c3.7,6.7,8.9,12.9,14.7,17.1C229.127,141.49,230.327,146.391,232.827,150.99z
		 M284.527,146.69c-16.5,2.4-32.7,4.3-49.3,4.3c0-0.3,0-0.3,0-0.6c-1.2-3.4-2.4-7.7-0.3-11c2.1,1.2,4.3,2.1,6.399,3.1
		c11.3,3.7,20.5-6.4,25.4-15.3c0.3-0.9,0.6-1.8,1.2-2.8c3.399,2.1,8.3,3.4,13.5,4.3C281.127,134.69,282.327,141.19,284.527,146.69z
		 M288.827,129.891c10.7,1.2,21.7,0.9,26.601,0.9c5.8,0,12.899-0.6,19.899-2.1c-0.3,3.7-0.3,7.6-0.6,11.3
		c-14.7,1.2-29.4,3.7-44.101,5.8C288.428,140.59,289.127,135.09,288.827,129.891z M152.627,105.09c-1.5-0.9-3.699-0.9-4.899,0.3
		c-2.4-0.6-5.5-2.4-8.601-5.8c-11.899-13.2-6.699-30.9,3.101-43.1c0.899,0.6,2.1,0.6,3.399,0.6c40.7-8.6,81.7-6.1,123-5.5
		c14.101,0.3,28.2-0.6,42.2-1.5c33-2.4,41-18.7,59.101,23.6c-1.8-4.6-9.2-2.1-9.2,2.4c-7.3,7.6-14.7,15-22,22.6
		c-15.3,0.9-26.3-7-32.7-23.6c-1.2-3.1-6.1-3.1-6.1,0.6c-1.8-1.5-4.9-1.8-6.7,0.9c-2.101,3.7-4.601,7.3-7.601,10.7
		c-7.3,2.1-12.199,0.9-14.699-3.7c-0.601-2.1-1.2-4-1.801-6.1c-2.1-6.1-11.3-3.7-9.8,2.8c3.101,11.9,6.4,50.2-13.5,51.4
		c-11.899,0.9-23-21.4-26-30.6c-0.899-2.4-6.1-19.9-3.1-21.7c0.6-0.3,0-1.5-0.601-1.2c-0.899,0.6-1.8,1.2-2.399,2.1
		c0.3-1.2,0.899-2.1,1.2-3.4c2.1-5.5-6.7-8-8.9-2.4c-2.4,6.7-5.5,13.5-11.6,17.4c-8.601,5.8-15.601-7.3-18.7-12.9
		c-1.8-3.7-8-3.1-8.9,1.2C164.827,90.09,159.928,102.291,152.627,105.09z M158.728,113.59c7.7-3.7,11.899-11.6,14.7-19.9
		c4.6,5.5,10.699,9.5,18.699,9.2c8.601-0.6,14.4-7.6,18.4-15.3c-1.2,5.5-0.3,11.9,0.3,16.2c0.3,2.4,1.2,5.2,2.101,7.7
		c-7.7-0.9-15.601,0-23.301,0.6C178.928,112.69,168.827,112.99,158.728,113.59z M13.428,366.091c-0.6-8.601,3.1-18.7,5.5-26.9
		c3.7-13.2,9.2-26.3,14.1-39.2c8.3-21.4,11.6-54.8,32.4-67.6c12.199-7.3,30.6-7.3,44.399-10.1c26-5.5,50.8-9.8,77.101-6.4
		c0.899,0.9,2.8,1.2,4,0.6c3.399,7.3,5.8,15.9,9.5,23c1.5,3.1,5.5,2.8,7.699,0.9c8-7.3,17.4-11.6,28.5-11.6
		c13.2-0.3,18.7,9.8,24.2,19.6c2.101,3.7,6.101,2.4,7.601-0.3c1.5,1.5,4.6,1.5,4.899-1.2c2.8-20.2,18.4-20.5,32.4-9.2
		c3.1,2.4,8.9,1.2,8.6-3.7c-1.199-21.7,13.2-21.4,28.5-14.1c4.601,2.1,8.9-3.1,5.5-7c-1.199-1.2-2.399-2.4-3.699-3.4h0.3
		c55.7,1.8,179.6-32.7,207.8,34.6c10.4,24.5,16.2,51.4,22,77.4c1.2,5.2,2.1,10.4,3.1,15.601c4.301,23.6-21.699,31.5-37,16.199
		c-13.5-13.5-22.3-34-26-52c-1.199-5.5-9.199-4.899-10.699,0c-26.301,26.9-44.101,25.101-54.2-5.5c-1.2-4.6-7.3-2.4-6.7,1.801
		c0,0.3,0.3,0.6,0.3,0.899c-2.399-1.5-6.399-0.899-7.7,2.8c-13.8,33.7-41,23.9-52.6-1.5c-1.8-4.3-8-3.399-10.4,0
		c-8.899,13.801-39.199,37-37,3.101c0.301-6.4-7.699-7-10.699-3.101c-23.601,31.801-45.9,8.601-55.101-10.7
		c-1.2-2.8-5.2-1.5-5.8,0.9c-3.101-2.1-8-1.2-8,3.7c0.3,10.1-0.9,19.3-3.7,28.8c-7,25.7-42.5,34-57.2,11
		c-8.3-12.899-12.5-28.8-19-42.5c-2.1-4.3-9.2-3.1-10.1,1.2c-1.2,18.701-12.9,24.201-34.9,16.5c-2.8-4.3-8.3-3.1-10.1,1.2
		c-3.101,5.2-6.101,10.399-9.5,15.6c-8.9,11.601-18.4,10.101-28.801-5.2c0-1.8-2.399-2.1-3.1-0.3c-3.1,8.9-4.3,25.7,9.8,25.7
		c1.2,0,2.8-0.3,4-0.3c-9.5,7.6-17.7,18.399-22.3,30c-1.8-5.5-3.7-11-5.5-16.8c6.7-13.801,11.3-28.2,13.5-37.301
		c0.9-4.6-4.9-7-7.3-3.1c-11.9,18.1-17.101,38.9-30.6,56.3C34.228,385.991,24.728,382.891,13.428,366.091z M514.027,343.691
		c2.101,0.9,4,0,4.9-1.5c3.7,6.7,7.6,13.5,12.2,19c-16.2-0.9-27.801,5.5-35.5,20.2c-11.9-12.2-31.801-24.2-52-29.7
		C465.327,339.191,489.527,334.891,514.027,343.691z M430.128,341.591c-1.801-3.4-4-6.4-6.4-8.9c9.5-3.7,17.7-12.2,21.4-26.6
		c4.6,14.1,15.6,23,27.5,26C457.728,336.691,432.027,344.991,430.128,341.591z M497.128,329.391c4.3-2.4,8.3-5.8,11.6-10.4
		c1.8,4.601,4,9.8,6.4,15C509.128,331.791,503.327,330.291,497.128,329.391z M261.228,344.391c21.1-1.5,45.6-23,57.8,11.3
		c-16.8,1.5-28.8,8.9-35.8,24.2c-11-11-26.3-16.8-41-17.101c-0.3-0.899-1.2-1.8-2.4-1.8l0,0c-0.3-0.3-0.3-0.6-0.6-0.6
		c-0.601-0.3-1.5-0.601-2.4-0.601c21.7-9.199,31.2-39.8,30-61.8c11.3,26,37.601,34.3,58.4,18.7c4.6,29.1,34.6,18.4,52.3-2.8
		c2.4,3.399,4.9,6.399,8,9.2c-6.7,0.899-13.5,2.399-19.3,4.3c-13.2,4.3-25.1,12.5-36.4,20.2c-1.5,0.899-14.699-14.4-17.699-16.5
		c-14.7-10.7-37.9,2.8-51.4,8.899C258.228,341.291,259.127,344.391,261.228,344.391z M422.827,348.591
		c-17.699-0.301-33.399,5.8-41.6,23c-6.4,13.5-3.7,5.199-16.2-3.4c-8.899-6.1-21.399-11-32.399-12.2
		C360.027,336.091,399.228,315.891,422.827,348.591z M145.527,363.591c-10.1-0.9-19.6,1.199-27.8,9.199
		c-7,6.7-15.9,28.801-16.2,28.5c-8-4.3-15.9-7-23.9-8.6C81.027,358.991,129.627,317.991,145.527,363.591z M117.728,334.891
		c3.7-3.7,7-8,9.8-12.9c15.9,16.2,34.6,6.4,44.4-12.899c2.8,6.699,5.5,13.5,8.6,20.199c-0.6,0-1.5,0-2.1,0.301
		c-11.601,6.1-20.801,12.5-27.5,22.6C142.827,337.291,130.527,332.691,117.728,334.891z M188.728,402.191
		c-13.5,2.8-26.9,11.9-37.601,25.4c-8.6-15.9-23.3-20.2-37.6-17.101C115.627,360.591,167.027,373.391,188.728,402.191z
		 M154.728,365.491c6.1-14.399,17.399-19.6,28.5-29.399c0.3-0.301,0.3-0.301,0.3-0.601c8.6,15.9,20.5,28.2,41.6,26.9
		c2.101,0,4-0.601,6.101-0.9c-0.3,0.601-0.601,1.2-0.601,2.101c-15.6,2.8-29.699,11.6-37,27.5
		C183.827,380.491,169.428,369.791,154.728,365.491z M67.527,391.191c-9.2-0.9-18.4-0.3-28.2,0.9c8.9-4.9,16.5-14.7,22.9-25.7
		C64.127,374.991,66.627,382.891,67.527,391.191z M26.828,468.591c-4,0.3-5.8-3.101-6.7-8.601c0.6-0.3,0.9-0.899,0.6-1.8
		c-0.9-4-1.2-7-1.2-10.1c0-0.9,0-1.801,0-2.801c3.7-23,43.5-7.3,51.1,14.7c0,0.3,0.301,0.3,0.301,0.601
		C56.527,464.291,42.127,467.391,26.828,468.591z M32.027,424.191c-4.3,0.3-7.6,1.5-10.4,3.4c1.2-8.9,3.1-17.7,4.3-24.2
		c0.9,0.6,2.1,0.899,3.4,0.6c14.1-2.8,26.9-4.899,39.2-3.7c1.2,4,5.8,4.301,8,1.2c8.6,2.101,17.1,6.101,25.7,13.2
		c-12.2,6.1-22.9,16.8-27.8,30.3C64.827,430.991,50.127,422.691,32.027,424.191z M139.728,445.591c-14.4,1.8-28.5,4.3-42.5,8
		c-5.5,1.5-11.3,3.1-16.8,4.6c2.8-31.5,48.3-58.1,64-21.4C142.827,439.791,141.327,442.591,139.728,445.591z M146.228,444.991
		c0.899-0.899,1.8-1.8,2.8-2.8c3.4,0.9,7.6-1.5,6.1-5.8c0,0,0,0,0-0.3c21.7-20.5,53.2-44.7,67,3.1c0,0.3,0,0.3,0.301,0.3
		C197.027,441.091,171.228,441.991,146.228,444.991z M200.928,401.591c10.399-34.301,57.5-37.9,78.3-10.4
		c-19.601-1.2-38.9,8.6-51.101,30.9C221.127,409.491,211.627,403.091,200.928,401.591z M251.127,438.591c-5.5,0.3-11,0.6-16.8,0.899
		c17.101-49,62.7-43.5,86.301-5.5C297.327,435.891,274.127,437.391,251.127,438.591z M327.327,420.591
		c-10.699-14.7-24.199-24.2-37.899-27.9c0.3-0.3,0.6-0.9,0.899-1.5c14.101-46.5,66.101-21.1,85.4,1.2
		C357.928,394.491,340.527,404.291,327.327,420.591z M333.728,433.091c23-39.2,65.8-38.2,90-4.601
		C393.728,429.391,363.728,431.291,333.728,433.091z M386.128,392.391c0-0.3,0.3-0.601,0.3-0.601c12.2-43.5,66.399-32.399,94.6-8
		c-19.899-1.199-38.899,10.101-48,36.4C420.327,402.191,403.527,393.291,386.128,392.391z M442.428,428.491
		c14.1-50.8,62.7-38.6,83.2,2.8C498.128,428.791,470.228,428.191,442.428,428.491z M506.928,392.391c11-7.3,22.3-14.7,33.399-22
		c3.7,3.1,7.601,5.2,11.9,6.399c2.1,7.7,4,15,6.1,22.601c-12.199,3.7-19.899,10.7-25.1,21.399
		C526.228,408.291,517.027,398.791,506.928,392.391z M566.628,435.891c-8.301-1.2-16.5-2.101-24.801-3.101
		c6.4-6.699,12.9-13.5,19.301-20.199C563.228,420.191,565.128,427.891,566.628,435.891z"/>
</g>
</svg>